<svg width="100" height="100" viewBox="0 0 100 100" fill="none" xmlns="http://www.w3.org/2000/svg">
<rect width="100" height="100" rx="50" fill="#152C4B"/>
<path d="M32.98 30H52.06C56.62 30 60.64 30.88 64.12 32.64C67.64 34.36 70.36 36.8 72.28 39.96C74.24 43.12 75.22 46.8 75.22 51C75.22 55.2 74.24 58.88 72.28 62.04C70.36 65.2 67.64 67.66 64.12 69.42C60.64 71.14 56.62 72 52.06 72H32.98V30ZM51.58 64.02C55.78 64.02 59.12 62.86 61.6 60.54C64.12 58.18 65.38 55 65.38 51C65.38 47 64.12 43.84 61.6 41.52C59.12 39.16 55.78 37.98 51.58 37.98H42.7V64.02H51.58Z" fill="white"/>
<path d="M100 50C100 77.6142 77.6142 100 50 100C22.3858 100 0 77.6142 0 50C0 22.3858 22.3858 0 50 0C77.6142 0 100 22.3858 100 50ZM5.44066 50C5.44066 74.6094 25.3906 94.5593 50 94.5593C74.6094 94.5593 94.5593 74.6094 94.5593 50C94.5593 25.3906 74.6094 5.44066 50 5.44066C25.3906 5.44066 5.44066 25.3906 5.44066 50Z" fill="#469895"/>
</svg>
